<?xml version="1.0" encoding="UTF-8" standalone="no"?>
<!DOCTYPE svg PUBLIC "-//W3C//DTD SVG 1.1//EN" "http://www.w3.org/Graphics/SVG/1.1/DTD/svg11.dtd">
<svg width="100%" height="100%" viewBox="0 0 311 311" version="1.1" xmlns="http://www.w3.org/2000/svg" xmlns:xlink="http://www.w3.org/1999/xlink" xml:space="preserve" xmlns:serif="http://www.serif.com/" style="fill-rule:evenodd;clip-rule:evenodd;stroke-linejoin:round;stroke-miterlimit:2;">
    <g transform="matrix(1,0,0,1,-1762.278333,-2902.444444)">
        <g transform="matrix(0,294.742182,294.742182,0,1914.344374,2911.167813)">
            <circle cx="0.5" cy="0" r="0.5" style="fill:url(#_Linear1);"/>
        </g>
        <g transform="matrix(5.555556,0,0,5.555556,1968.728889,3072.478333)">
            <path d="M0,-5.018L-7.28,-5.018L-7.28,-12.298C-7.28,-13.684 -8.404,-14.807 -9.789,-14.807C-11.175,-14.807 -12.298,-13.684 -12.298,-12.298L-12.298,-5.018L-19.578,-5.018C-20.964,-5.018 -22.087,-3.895 -22.087,-2.509C-22.087,-1.123 -20.964,-0 -19.578,-0L-12.298,-0L-12.298,7.28C-12.298,8.666 -11.175,9.789 -9.789,9.789C-8.404,9.789 -7.28,8.666 -7.28,7.28L-7.28,-0L0,-0C1.386,-0 2.509,-1.123 2.509,-2.509C2.509,-3.895 1.386,-5.018 0,-5.018" style="fill:rgb(215,204,255);fill-rule:nonzero;"/>
        </g>
        <g transform="matrix(5.555556,0,0,5.555556,1917.422778,3182.6)">
            <path d="M0,-45.004C-12.408,-45.004 -22.502,-34.909 -22.502,-22.502C-22.502,-10.094 -12.408,-0 0,-0C12.408,-0 22.502,-10.094 22.502,-22.502C22.502,-34.909 12.408,-45.004 0,-45.004M0,5.424C-15.398,5.424 -27.926,-7.104 -27.926,-22.502C-27.926,-37.9 -15.398,-50.428 0,-50.428C15.398,-50.428 27.926,-37.9 27.926,-22.502C27.926,-7.104 15.398,5.424 0,5.424" style="fill:rgb(215,204,255);fill-rule:nonzero;"/>
        </g>
    </g>
    <defs>
        <linearGradient id="_Linear1" x1="0" y1="0" x2="1" y2="0" gradientUnits="userSpaceOnUse" gradientTransform="matrix(0,1,1,0,0.5,-0.5)"><stop offset="0" style="stop-color:rgb(41,53,139);stop-opacity:1"/><stop offset="1" style="stop-color:rgb(128,54,141);stop-opacity:1"/></linearGradient>
    </defs>
</svg>
