<?xml version="1.0" encoding="UTF-8" standalone="no"?>
<!DOCTYPE svg PUBLIC "-//W3C//DTD SVG 1.1//EN" "http://www.w3.org/Graphics/SVG/1.1/DTD/svg11.dtd">
<svg width="100%" height="100%" viewBox="0 0 452 337" version="1.1" xmlns="http://www.w3.org/2000/svg" xmlns:xlink="http://www.w3.org/1999/xlink" xml:space="preserve" xmlns:serif="http://www.serif.com/" style="fill-rule:evenodd;clip-rule:evenodd;stroke-linejoin:round;stroke-miterlimit:2;">
    <g transform="matrix(1,0,0,1,-1374.275544,-298.433333)">
        <g transform="matrix(5.555556,0,0,5.555556,0,0)">
            <text x="247.268px" y="114.222px" style="font-family:'CenturyGothic', 'Century Gothic', sans-serif;font-size:4.242px;fill:white;">A<tspan x="251.153px 255.599px 258.62px 262.505px 266.701px 269.722px 271.644px 275.839px 280.273px 284.158px 287.018px 290.039px 291.745px 294.451px 296.372px 300.329px 302.251px 305.111px 307.664px 310.985px 314.87px 317.423px 320.444px 324.891px 326.597px " y="114.222px 114.222px 114.222px 114.222px 114.222px 114.222px 114.222px 114.222px 114.222px 114.222px 114.222px 114.222px 114.222px 114.222px 114.222px 114.222px 114.222px 114.222px 114.222px 114.222px 114.222px 114.222px 114.222px 114.222px 114.222px ">GENCE CONSEIL &amp; STRATEGIE</tspan></text>
        </g>
        <g transform="matrix(110.349528,0,0,-110.349528,1454.762268,447.2949)">
            <path d="M0.583,1.19L0.007,-1.039C-0.023,-1.152 0.046,-1.268 0.159,-1.297C0.272,-1.326 0.388,-1.258 0.417,-1.145L0.993,1.084C1.022,1.197 0.954,1.313 0.841,1.342C0.823,1.347 0.806,1.349 0.788,1.349C0.694,1.349 0.608,1.286 0.583,1.19Z" style="fill:url(#_Linear1);fill-rule:nonzero;"/>
        </g>
        <g transform="matrix(5.555556,0,0,5.555556,1432.137778,360.165)">
            <path d="M0,4.805L-3.068,4.805L-3.068,9.794L0,9.794C2.328,9.794 3.4,9.129 3.4,7.281C3.4,5.47 2.328,4.805 0,4.805M-0.517,-4.952L-3.068,-4.952L-3.068,-0.554L-0.517,-0.554C1.589,-0.554 2.513,-1.146 2.513,-2.772C2.513,-4.472 1.589,-4.952 -0.517,-4.952M-10.238,-10.533L-0.185,-10.533C6.32,-10.533 9.351,-7.983 9.351,-3.548C9.351,-1.072 8.131,0.961 5.95,1.774C8.796,2.55 10.644,4.768 10.644,7.688C10.644,12.234 7.872,15.338 0.407,15.338L-10.238,15.338L-10.238,-10.533Z" style="fill:white;fill-rule:nonzero;"/>
        </g>
        <g transform="matrix(5.555556,0,0,5.555556,1621.018333,447.839444)">
            <path d="M0,-26.758C4.879,-26.758 9.277,-24.503 11.568,-20.438L5.544,-17.666C4.472,-19.662 2.698,-20.845 0.407,-20.845C-2.846,-20.845 -5.507,-18.331 -5.507,-13.379C-5.507,-8.352 -2.735,-5.913 0.591,-5.913C2.513,-5.913 3.992,-6.504 4.805,-7.613L4.805,-10.163L0.185,-10.163L0.185,-15.079L11.568,-15.079L11.568,-4.915C9.166,-1.847 5.322,0 0.48,0C-7.466,0 -12.751,-4.989 -12.751,-13.379C-12.751,-21.695 -7.651,-26.758 0,-26.758" style="fill:white;fill-rule:nonzero;"/>
        </g>
        <g transform="matrix(5.555556,0,0,5.555556,1375.348889,590.502222)">
            <path d="M0,-26.462L22.589,-26.462L22.589,-19.822L8.396,-19.822L8.396,-16.711L21.266,-16.711L21.139,-10.107L8.269,-10.107L8.396,0L0,0L0,-26.462Z" style="fill:white;fill-rule:nonzero;"/>
        </g>
        <g transform="matrix(5.555556,0,0,5.555556,1597.442778,442.97)">
            <path d="M0,26.556L-9.802,0.094L-0.679,0.094L5.045,17.767L10.695,0L19.843,0.094L10.048,26.556L0,26.556Z" style="fill:white;fill-rule:nonzero;"/>
        </g>
        <g transform="matrix(5.555556,0,0,5.555556,1711.13,590.502222)">
            <path d="M0,-26.462L20.274,-26.462L20.274,-19.835L9.226,-19.835L9.226,-16.711L19.979,-16.711L19.979,-10.058L9.226,-10.058L9.226,-6.571L20.529,-6.571L20.529,0L0,0L0,-26.462Z" style="fill:white;fill-rule:nonzero;"/>
        </g>
    </g>
    <defs>
        <linearGradient id="_Linear1" x1="0" y1="0" x2="1" y2="0" gradientUnits="userSpaceOnUse" gradientTransform="matrix(1,0,0,-1,0,0.022513)"><stop offset="0" style="stop-color:rgb(41,53,139);stop-opacity:1"/><stop offset="1" style="stop-color:rgb(128,54,141);stop-opacity:1"/></linearGradient>
    </defs>
</svg>
